<svg xmlns="http://www.w3.org/2000/svg" width="54.101" height="69.993" viewBox="0 0 54.101 69.993">
  <g id="Group_75737" data-name="Group 75737" transform="translate(-285.435 -231.946)">
    <path id="Path_2903" data-name="Path 2903" d="M302.735,314.645l2.063,2.062a23.3,23.3,0,0,0,0-32.98l-2.062,2.062a20.38,20.38,0,0,1,0,28.856Z" transform="translate(-11.117 -33.275)" fill="#707070"/>
    <path id="Path_2904" data-name="Path 2904" d="M320.039,309.71l2.062,2.062a32.032,32.032,0,0,0,0-45.348l-2.062,2.062a29.117,29.117,0,0,1,0,41.223Z" transform="translate(-22.237 -22.156)" fill="#707070"/>
    <path id="Path_2905" data-name="Path 2905" d="M287.5,321.643a14.562,14.562,0,0,0,0-20.613l-2.062,2.062a11.647,11.647,0,0,1,0,16.489Z" transform="translate(0 -44.394)" fill="#707070"/>
    <rect id="Rectangle_147693" data-name="Rectangle 147693" width="2.916" height="69.993" transform="translate(317.177 231.946)" fill="#707070"/>
    <rect id="Rectangle_147694" data-name="Rectangle 147694" width="2.916" height="69.993" transform="translate(336.62 231.946)" fill="#707070"/>
    <path id="Path_2906" data-name="Path 2906" d="M395.917,288.815a5.347,5.347,0,1,0,0,10.693,2.433,2.433,0,0,1,2.43,2.43h2.916a5.353,5.353,0,0,0-5.347-5.347,2.43,2.43,0,1,1,0-4.861,5.346,5.346,0,1,0,0-10.693,2.43,2.43,0,0,1,0-4.861,5.347,5.347,0,0,0,0-10.693,2.43,2.43,0,1,1,0-4.86,5.347,5.347,0,0,0,0-10.694,2.43,2.43,0,1,1,0-4.861,5.346,5.346,0,1,0,0-10.693,2.433,2.433,0,0,1-2.43-2.431H390.57a5.353,5.353,0,0,0,5.347,5.347,2.43,2.43,0,1,1,0,4.86,5.347,5.347,0,1,0,0,10.693,2.431,2.431,0,0,1,0,4.861,5.346,5.346,0,1,0,0,10.693,2.43,2.43,0,0,1,0,4.861,5.347,5.347,0,0,0,0,10.694,2.43,2.43,0,1,1,0,4.86Z" transform="translate(-67.56 0)" fill="#707070"/>
  </g>
</svg>
