<svg xmlns="http://www.w3.org/2000/svg" width="70.002" height="70.001" viewBox="0 0 70.002 70.001">
  <g id="Group_75755" data-name="Group 75755" transform="translate(-824.717 -1144.898)">
    <path id="Path_2941" data-name="Path 2941" d="M894.718,1146.481a1.583,1.583,0,0,0-1.583-1.583H847.628a1.583,1.583,0,0,0-1.583,1.583v9.081h-9.081a1.583,1.583,0,0,0-1.583,1.583v9.08H826.3a1.583,1.583,0,0,0-1.583,1.583v45.508a1.583,1.583,0,0,0,1.583,1.583h45.508a1.583,1.583,0,0,0,1.583-1.583v-9.081h9.08a1.583,1.583,0,0,0,1.583-1.583v-9.082h9.081a1.583,1.583,0,0,0,1.583-1.583Zm-3.166,1.583v4.263l-7.5,7.5v-2.68a1.583,1.583,0,0,0-1.583-1.583h-2.68l7.5-7.5Zm-7.5,16.238,7.5-7.5v8.525l-7.5,7.5Zm-1.242-16.238-7.5,7.5H866.79l7.5-7.5Zm-13,0-7.5,7.5h-8.525l7.5-7.5Zm-20.6,0h7.6l-7.5,7.5h-.1Zm21.014,63.669H827.883v-42.342h42.342Zm10.663-10.664h-7.5v-33.262a1.583,1.583,0,0,0-1.583-1.583H838.547v-7.5h42.341Zm10.664-10.664h-7.5v-.1l7.5-7.5Zm-7.5-4.576V1177.3l7.5-7.5v8.525Z" transform="translate(0)" fill="#707070"/>
    <path id="Path_2942" data-name="Path 2942" d="M876.981,1240.892h4.495a1.452,1.452,0,0,0,0-2.9h-4.495a1.452,1.452,0,1,0,0,2.9Z" transform="translate(-30.289 -55.748)" fill="#707070"/>
    <path id="Path_2943" data-name="Path 2943" d="M876.981,1275.349h4.495a1.452,1.452,0,0,0,0-2.9h-4.495a1.452,1.452,0,1,0,0,2.9Z" transform="translate(-30.289 -76.383)" fill="#707070"/>
    <path id="Path_2944" data-name="Path 2944" d="M846.731,1223.663h4.5a1.452,1.452,0,0,0,0-2.9h-4.5a1.451,1.451,0,1,0,0,2.9Z" transform="translate(-13.028 -45.43)" fill="#707070"/>
    <path id="Path_2945" data-name="Path 2945" d="M907.231,1223.663h4.5a1.452,1.452,0,0,0,0-2.9h-4.5a1.451,1.451,0,1,0,0,2.9Z" transform="translate(-48.322 -45.43)" fill="#707070"/>
    <path id="Path_2946" data-name="Path 2946" d="M846.73,1292.577h4.5a1.451,1.451,0,0,0,0-2.9h-4.5a1.452,1.452,0,1,0,0,2.9Z" transform="translate(-13.028 -85.919)" fill="#707070"/>
    <path id="Path_2947" data-name="Path 2947" d="M907.23,1292.577h4.5a1.451,1.451,0,1,0,0-2.9h-4.5a1.452,1.452,0,0,0,0,2.9Z" transform="translate(-48.322 -85.919)" fill="#707070"/>
    <path id="Path_2948" data-name="Path 2948" d="M846.731,1258.12h4.495a1.451,1.451,0,0,0,0-2.9h-4.495a1.451,1.451,0,1,0,0,2.9Z" transform="translate(-13.028 -66.065)" fill="#707070"/>
    <path id="Path_2949" data-name="Path 2949" d="M911.726,1255.217h-4.495a1.451,1.451,0,1,0,0,2.9h4.495a1.451,1.451,0,1,0,0-2.9Z" transform="translate(-48.322 -66.065)" fill="#707070"/>
  </g>
</svg>
