<svg xmlns="http://www.w3.org/2000/svg" width="77.972" height="70.003" viewBox="0 0 77.972 70.003">
  <path id="Path_3502" data-name="Path 3502" d="M241.52,205.3l-9.422-4.172,9.422-4.172a1.583,1.583,0,0,0,0-2.9l-37.4-16.561a1.581,1.581,0,0,0-1.282,0l-37.4,16.561a1.583,1.583,0,0,0,0,2.9l9.422,4.172-9.422,4.172a1.582,1.582,0,0,0-.942,1.447v11.238a1.583,1.583,0,0,0,.942,1.447l9.422,4.172-9.422,4.172a1.583,1.583,0,0,0,0,2.895l37.4,16.561a1.584,1.584,0,0,0,1.282,0l37.4-16.561a1.583,1.583,0,0,0,0-2.895L232.1,223.6l9.422-4.172a1.583,1.583,0,0,0,.942-1.447V206.746A1.582,1.582,0,0,0,241.52,205.3Zm-38.044-24.621,33.493,14.83-33.493,14.83-33.493-14.83Zm-.641,32.838a1.584,1.584,0,0,0,1.282,0l24.071-10.658,8.781,3.888-33.493,14.83-33.493-14.83,8.781-3.888Zm-22.712,8.958V214.7l9.3,4.119v7.776Zm12.468-2.256,9.3,4.119v7.776l-9.3-4.119Zm12.467,4.119,9.3-4.118v7.776l-9.3,4.119Zm12.468-5.521,9.3-4.119v7.776l-9.3,4.119Zm-49.871-9.639,9.3,4.119v7.776l-9.3-4.118Zm35.82,34.874-33.493-14.83,8.781-3.888,24.071,10.658a1.58,1.58,0,0,0,1.282,0l24.071-10.658,8.781,3.888Zm26.518-22.98V213.3l9.3-4.119v7.776Z" transform="translate(-164.49 -177.363)" fill="#707070"/>
</svg>
