<svg xmlns="http://www.w3.org/2000/svg" width="72.501" height="72.699" viewBox="0 0 72.501 72.699">
  <g id="engineer-architect" transform="translate(-405.75 -114.75)">
    <path id="Path_2957" data-name="Path 2957" d="M426,139a51.379,51.379,0,0,0,.806,6.939,13.113,13.113,0,0,0,25.475,0A50.626,50.626,0,0,0,453.1,139" transform="translate(2.452 2.968)" fill="none" stroke="#707070" stroke-linecap="round" stroke-linejoin="round" stroke-width="2.5"/>
    <g id="Group_75758" data-name="Group 75758" transform="translate(432.968 156.646)">
      <path id="Path_2958" data-name="Path 2958" d="M431.129,152A9.729,9.729,0,0,1,430,157.645" transform="translate(-430 -152)" fill="none" stroke="#707070" stroke-linecap="round" stroke-linejoin="round" stroke-width="2.5"/>
      <path id="Path_2959" data-name="Path 2959" d="M445.007,152a9.728,9.728,0,0,0,1.129,5.645" transform="translate(-428.072 -152)" fill="none" stroke="#707070" stroke-linecap="round" stroke-linejoin="round" stroke-width="2.5"/>
    </g>
    <path id="Path_2960" data-name="Path 2960" d="M471.839,180.839s0-13.549-9.032-18.065L447,156" transform="translate(5.162 5.162)" fill="none" stroke="#707070" stroke-linecap="round" stroke-linejoin="round" stroke-width="2.5"/>
    <path id="Path_2961" data-name="Path 2961" d="M407,180.839s0-13.549,9.032-18.065L431.839,156" transform="translate(0 5.162)" fill="none" stroke="#707070" stroke-linecap="round" stroke-linejoin="round" stroke-width="2.5"/>
    <g id="Group_75759" data-name="Group 75759" transform="translate(426.194 161.558)">
      <path id="Path_2962" data-name="Path 2962" d="M425.129,162,424,169.9l7.9-7.9s7.9,3.387,7.9,18.065" transform="translate(-424 -155.621)" fill="none" stroke="#707070" stroke-linecap="round" stroke-linejoin="round" stroke-width="2.5"/>
      <line id="Line_16" data-name="Line 16" x1="3" y1="6" transform="translate(4.806 0.31)" fill="none" stroke="#707070" stroke-linecap="round" stroke-linejoin="round" stroke-width="2.5"/>
    </g>
    <g id="Group_75760" data-name="Group 75760" transform="translate(442.001 161.558)">
      <path id="Path_2963" data-name="Path 2963" d="M452.678,162l1.129,7.9-7.9-7.9s-7.9,3.387-7.9,18.065" transform="translate(-438 -155.621)" fill="none" stroke="#707070" stroke-linecap="round" stroke-linejoin="round" stroke-width="2.5"/>
      <line id="Line_17" data-name="Line 17" y1="6" x2="2" transform="translate(7.999 0.31)" fill="none" stroke="#707070" stroke-linecap="round" stroke-linejoin="round" stroke-width="2.5"/>
    </g>
    <g id="Group_75761" data-name="Group 75761" transform="translate(451.636 181.75)">
      <line id="Line_18" data-name="Line 18" x2="12" transform="translate(0.364 4.117)" fill="none" stroke="#707070" stroke-linecap="round" stroke-linejoin="round" stroke-width="2.5"/>
      <line id="Line_19" data-name="Line 19" y2="4" transform="translate(4.364 0.117)" fill="none" stroke="#707070" stroke-linecap="round" stroke-linejoin="round" stroke-width="2.5"/>
      <line id="Line_20" data-name="Line 20" x1="1" y2="3" transform="translate(8.364 1.117)" fill="none" stroke="#707070" stroke-linecap="round" stroke-linejoin="round" stroke-width="2.5"/>
    </g>
    <g id="Group_75762" data-name="Group 75762" transform="translate(422.807 116)">
      <path id="Path_2964" data-name="Path 2964" d="M421,132v1.129c2,3.238,10.115,4.516,19.194,4.516s17.194-1.279,19.194-4.516V132" transform="translate(-421 -113.935)" fill="none" stroke="#707070" stroke-linecap="round" stroke-linejoin="round" stroke-width="2.5"/>
      <path id="Path_2965" data-name="Path 2965" d="M449.323,131A46.292,46.292,0,0,1,429,131" transform="translate(-419.968 -114.064)" fill="none" stroke="#707070" stroke-linecap="round" stroke-linejoin="round" stroke-width="2.5"/>
      <path id="Path_2966" data-name="Path 2966" d="M441.774,121.645v-4.354a1.121,1.121,0,0,0-.943-1.118,17.269,17.269,0,0,0-4.889,0,1.121,1.121,0,0,0-.943,1.118v4.354" transform="translate(-419.193 -116)" fill="none" stroke="#707070" stroke-linecap="round" stroke-linejoin="round" stroke-width="2.5"/>
      <path id="Path_2967" data-name="Path 2967" d="M453.42,131.64c0-6.878-5.134-12.9-12.42-14.344" transform="translate(-418.419 -115.833)" fill="none" stroke="#707070" stroke-linecap="round" stroke-linejoin="round" stroke-width="2.5"/>
      <path id="Path_2968" data-name="Path 2968" d="M436.42,117.3c-7.286,1.446-12.42,7.465-12.42,14.344" transform="translate(-420.613 -115.833)" fill="none" stroke="#707070" stroke-linecap="round" stroke-linejoin="round" stroke-width="2.5"/>
    </g>
  </g>
</svg>
