<svg xmlns="http://www.w3.org/2000/svg" width="70" height="70" viewBox="0 0 70 70">
  <path id="Path_2907" data-name="Path 2907" d="M1891.4,301.984V299.4a.539.539,0,0,0-.539-.539h-9.321a.537.537,0,0,1-.536-.486,24.823,24.823,0,0,0-.98-4.958.537.537,0,0,1,.31-.652l8.605-3.564a.539.539,0,0,0,.292-.7l-.991-2.391a.539.539,0,0,0-.7-.292l-8.6,3.562a.537.537,0,0,1-.681-.243,24.562,24.562,0,0,0-2.81-4.2.537.537,0,0,1,.036-.722l6.583-6.583a.539.539,0,0,0,0-.762l-1.83-1.83a.539.539,0,0,0-.762,0l-4.363,4.362a.539.539,0,0,1-.92-.381v-6.863a.539.539,0,0,0-.539-.539h-2.588a.539.539,0,0,0-.539.539v11.607a.54.54,0,0,1-.158.381l-11.211,11.211a.539.539,0,0,1-.92-.381V279.108a.539.539,0,0,1,.157-.381l8.206-8.206a.539.539,0,0,0,0-.762l-1.83-1.83a.539.539,0,0,0-.762,0l-4.851,4.851a.539.539,0,0,1-.92-.381v-6.17a.539.539,0,0,0-.539-.539H1855.1a.539.539,0,0,0-.539.539v6.17a.539.539,0,0,1-.92.381l-4.851-4.851a.539.539,0,0,0-.762,0l-1.83,1.83a.539.539,0,0,0,0,.762l8.206,8.206a.54.54,0,0,1,.158.381v15.855a.539.539,0,0,1-.92.381l-11.211-11.211a.538.538,0,0,1-.158-.381V272.145a.539.539,0,0,0-.539-.539h-2.588a.539.539,0,0,0-.539.539v6.863a.539.539,0,0,1-.92.381l-4.363-4.362a.539.539,0,0,0-.762,0l-1.83,1.83a.54.54,0,0,0,0,.762l4.362,4.362a.539.539,0,0,1-.381.92h-6.863a.539.539,0,0,0-.539.539v2.588a.539.539,0,0,0,.539.539h11.608a.539.539,0,0,1,.381.158l11.211,11.211a.539.539,0,0,1-.381.92h-15.855a.539.539,0,0,1-.381-.158l-8.206-8.206a.539.539,0,0,0-.762,0l-1.83,1.83a.539.539,0,0,0,0,.762l4.851,4.851a.539.539,0,0,1-.381.92h-6.169a.539.539,0,0,0-.539.539v2.588a.539.539,0,0,0,.539.539h6.17a.539.539,0,0,1,.381.92l-4.851,4.851a.539.539,0,0,0,0,.762l1.83,1.83a.539.539,0,0,0,.762,0l8.206-8.206a.539.539,0,0,1,.381-.158h15.854a.539.539,0,0,1,.382.92l-11.211,11.211a.539.539,0,0,1-.381.158H1827.85a.539.539,0,0,0-.539.539v2.588a.539.539,0,0,0,.539.539h6.863a.539.539,0,0,1,.381.92l-4.362,4.362a.54.54,0,0,0,0,.762l1.83,1.83a.539.539,0,0,0,.762,0l6.582-6.583a.537.537,0,0,1,.722-.036,24.549,24.549,0,0,0,4.2,2.81.538.538,0,0,1,.244.681l-3.563,8.6a.539.539,0,0,0,.292.7l2.391.99a.539.539,0,0,0,.7-.292l3.564-8.605a.537.537,0,0,1,.653-.31,24.827,24.827,0,0,0,4.958.98.537.537,0,0,1,.485.536v9.321a.539.539,0,0,0,.539.539h2.588a.54.54,0,0,0,.539-.539V325.83a.537.537,0,0,1,.485-.536,24.824,24.824,0,0,0,4.959-.98.538.538,0,0,1,.653.31l3.564,8.605a.539.539,0,0,0,.7.292l2.391-.99a.539.539,0,0,0,.292-.7l-3.562-8.6a.537.537,0,0,1,.243-.681,24.54,24.54,0,0,0,4.2-2.81.538.538,0,0,1,.723.036l6.583,6.583a.539.539,0,0,0,.762,0l1.83-1.83a.539.539,0,0,0,0-.762l-6.583-6.583a.537.537,0,0,1-.036-.722,24.565,24.565,0,0,0,2.81-4.2.537.537,0,0,1,.681-.244l8.6,3.562a.539.539,0,0,0,.7-.292l.991-2.391a.539.539,0,0,0-.292-.7l-8.605-3.565a.537.537,0,0,1-.31-.652,24.827,24.827,0,0,0,.98-4.958.537.537,0,0,1,.536-.486h9.321A.539.539,0,0,0,1891.4,301.984Zm-33.7,0h0l14.411-14.412a.541.541,0,0,1,.8.046,21.06,21.06,0,0,1-29.583,29.583.54.54,0,0,1-.046-.8Z" transform="translate(-1821.396 -265.69)" fill="#707070"/>
</svg>
