<svg xmlns="http://www.w3.org/2000/svg" xmlns:xlink="http://www.w3.org/1999/xlink" width="195.047" height="107" viewBox="0 0 195.047 107">
  <defs>
    <clipPath id="clip-path">
      <rect id="Rectangle_405" data-name="Rectangle 405" width="195.047" height="107" fill="none"/>
    </clipPath>
  </defs>
  <g id="Group_937" data-name="Group 937" clip-path="url(#clip-path)">
    <path id="Path_1" data-name="Path 1" d="M144.082,75.8h2.839V63.165h.072L154.76,75.8h3.15V58.616H155.07V71.274h-.047l-7.791-12.658h-3.15ZM133.038,58.208c-5.089,0-8.168,4.112-8.168,9,0,4.934,3.08,9,8.168,9s8.168-4.063,8.168-9c0-4.887-3.078-9-8.168-9m0,2.451c3.656,0,5.185,3.249,5.185,6.548s-1.529,6.546-5.185,6.546-5.185-3.249-5.185-6.546,1.529-6.548,5.185-6.548M118.955,75.8h2.983V58.616h-2.983ZM103.037,61.213h5.4V75.8h2.983V61.213h5.422v-2.6h-13.8Zm-6.621.364h.072l2.557,7.387H93.837ZM88.343,75.8h3.081l1.6-4.547h6.807l1.6,4.547h3.2L98.065,58.616H94.889Zm-12.814,0H87.184V73.2H78.513V58.616H75.529ZM57.863,69.613c0,4.4,2.792,6.59,7,6.59s7-2.187,7-6.59v-11H68.875V68.627c0,2.31-.144,4.982-4.015,4.982s-4.014-2.671-4.014-4.982V58.616H57.863Zm-16.52.457c.072,4.258,3.222,6.133,7.118,6.133,3.369,0,6.781-1.537,6.781-5.387a4.554,4.554,0,0,0-3.317-4.381c-.885-.265-4.661-1.251-4.924-1.324-1.219-.361-2.031-.986-2.031-2.214,0-1.732,1.745-2.239,3.13-2.239,2.08,0,3.514.818,3.68,3.034h2.983c0-3.586-3.008-5.485-6.544-5.485-3.083,0-6.232,1.586-6.232,5.051,0,1.781.835,3.587,3.771,4.358,2.367.65,3.872.962,5.09,1.419a2.042,2.042,0,0,1,1.41,2.119c0,1.275-.979,2.6-3.607,2.6-2.39,0-4.326-1.058-4.326-3.682ZM24.746,75.8h2.839V63.165h.072L35.423,75.8h3.15V58.616H35.734V71.274h-.047L27.9,58.616h-3.15Zm-6.7,0h2.983V58.616H18.044Z" transform="translate(9.547 30.796)" fill="#58595b"/>
    <path id="Path_2" data-name="Path 2" d="M141.412,54.312V44.563c-.234-6.722-2.557-18.694-9.425-18.476-5.577.174-4.9,9.59-8.916,9.749-2.434.1-4-3.729-5.859-5.644-1.557-1.609-4.323-3.9-6.624-4.106-6.762-.61-8.364,5.723-9.934,10.522,2.416,4.8,4.336,8.644,3.82,15.395-.349,4.534-3.04,7.544-3.312,10.52-.343,3.748,2.011,7.71,4.841,7.956,6.4.557,5.136-8.035,10.445-8.723,7.073-.92,9.757,11.072,18.343,8.468,5.314-1.613,5.656-9.789,6.622-15.912" transform="translate(53.253 13.78)" fill="#ba202a"/>
    <path id="Path_3" data-name="Path 3" d="M141.412,54.312V44.563c-.234-6.722-2.557-18.694-9.425-18.476-5.577.174-4.9,9.59-8.916,9.749-2.434.1-4-3.729-5.859-5.644-1.557-1.609-4.323-3.9-6.624-4.106-6.762-.61-8.364,5.723-9.934,10.522,2.416,4.8,4.336,8.644,3.82,15.395-.349,4.534-3.04,7.544-3.312,10.52-.343,3.748,2.011,7.71,4.841,7.956,6.4.557,5.136-8.035,10.445-8.723,7.073-.92,9.757,11.072,18.343,8.468C140.1,68.611,140.446,60.435,141.412,54.312Z" transform="translate(53.253 13.78)" fill="none" stroke="#fff" stroke-miterlimit="10" stroke-width="0.5"/>
    <path id="Path_4" data-name="Path 4" d="M44.864,44.381c.128-1.635,2.222-2.81,4.587-2.823,3.567,4.106-4.983,7.893-4.587,2.823M47.923,25.9h-.765c-5.13.714-9.165,4.974-11.72,8.47a62.16,62.16,0,0,0-9.427,19.757c2.937,2.433,4.046,8.061,1.274,11.549,1.913,2.691,5.132,4.069,9.937,3.847,3.6-1.359,3.844-7.182,8.151-7.182,4.058,0,5.02,6.5,8.918,7.7,7.627,2.335,12.086-7.051,12.23-13.087C66.83,43.9,58.73,28.534,47.923,25.9" transform="translate(13.762 13.705)" fill="#ba202a"/>
    <path id="Path_5" data-name="Path 5" d="M44.864,44.381c.128-1.635,2.222-2.81,4.587-2.823C53.019,45.664,44.468,49.452,44.864,44.381ZM47.923,25.9h-.765c-5.13.714-9.165,4.974-11.72,8.47a62.16,62.16,0,0,0-9.427,19.757c2.937,2.433,4.046,8.061,1.274,11.549,1.913,2.691,5.132,4.069,9.937,3.847,3.6-1.359,3.844-7.182,8.151-7.182,4.058,0,5.02,6.5,8.918,7.7,7.627,2.335,12.086-7.051,12.23-13.087C66.83,43.9,58.73,28.534,47.923,25.9Z" transform="translate(13.762 13.705)" fill="none" stroke="#fff" stroke-miterlimit="10" stroke-width="0.5"/>
    <path id="Path_6" data-name="Path 6" d="M74.123,36.941c.1,2.216-3.517,3.46-5.606,2.564-5.635-2.414,5.369-7.905,5.606-2.564M74.886,25.9h-7.9c-3.488.826-7.982,1.787-10.444,4.107-2.3,2.173-5.2,7.575-5.095,11.034.069,2.274,1.737,4.895,2.294,7.7,1.213,6.1,1.231,11.815-1.274,16.165,2.385,2.294,3.823,6.2,8.407,5.133,3.323-.774,3.13-5.512,5.6-6.671a7.238,7.238,0,0,1,2.8-.514c5.855.194,8.817,8.187,15.541,7.442,4.526-.5,8.09-5.113,6.878-9.5-.654-2.361-3.4-3.864-5.35-5.388C84.64,54.079,81.065,52.358,81,49.77c-.087-3.408,5.676-6.176,7.895-9.752C94.036,31.737,82.538,26.8,74.886,25.9" transform="translate(27.219 13.705)" fill="#ba202a"/>
    <path id="Path_7" data-name="Path 7" d="M74.123,36.941c.1,2.216-3.517,3.46-5.606,2.564C62.883,37.091,73.886,31.6,74.123,36.941ZM74.886,25.9h-7.9c-3.488.826-7.982,1.787-10.444,4.107-2.3,2.173-5.2,7.575-5.095,11.034.069,2.274,1.737,4.895,2.294,7.7,1.213,6.1,1.231,11.815-1.274,16.165,2.385,2.294,3.823,6.2,8.407,5.133,3.323-.774,3.13-5.512,5.6-6.671a7.238,7.238,0,0,1,2.8-.514c5.855.194,8.817,8.187,15.541,7.442,4.526-.5,8.09-5.113,6.878-9.5-.654-2.361-3.4-3.864-5.35-5.388C84.64,54.079,81.065,52.358,81,49.77c-.087-3.408,5.676-6.176,7.895-9.752C94.036,31.737,82.538,26.8,74.886,25.9Z" transform="translate(27.219 13.705)" fill="none" stroke="#fff" stroke-miterlimit="10" stroke-width="0.5"/>
    <path id="Path_8" data-name="Path 8" d="M22.411,38.222c.083,2.583-4.361,3.584-6.113,1.538-1.453-4.518,6-5.087,6.113-1.538M17.57,59.008c-.266-2.852,4.887-3.341,6.115-.772-.09,3.324-5.864,3.445-6.115.772m5.1-33.1H21.391C7.906,26.519.165,32.918.25,47.2v7.184c.9,7.038,2.875,12.084,8.15,14.37,5.043,2.187,15.416,1.787,22.162,1.028,5.018-.566,11.026-4.758,10.7-9.751-.346-5.28-8.763-5.58-8.916-10.778-.148-4.974,7.609-5.434,8.408-10.008C42.119,31.425,29.764,26.3,22.666,25.9" transform="translate(0.132 13.705)" fill="#ba202a"/>
    <path id="Path_9" data-name="Path 9" d="M22.411,38.222c.083,2.583-4.361,3.584-6.113,1.538C14.845,35.242,22.3,34.673,22.411,38.222ZM17.57,59.008c-.266-2.852,4.887-3.341,6.115-.772C23.595,61.56,17.821,61.681,17.57,59.008Zm5.1-33.1H21.391C7.906,26.519.165,32.918.25,47.2v7.184c.9,7.038,2.875,12.084,8.15,14.37,5.043,2.187,15.416,1.787,22.162,1.028,5.018-.566,11.026-4.758,10.7-9.751-.346-5.28-8.763-5.58-8.916-10.778-.148-4.974,7.609-5.434,8.408-10.008C42.119,31.425,29.764,26.3,22.666,25.9Z" transform="translate(0.132 13.705)" fill="none" stroke="#fff" stroke-miterlimit="10" stroke-width="0.5"/>
    <path id="Path_10" data-name="Path 10" d="M97.686,41.769c3.6,1-.219,8.2-4.073,5.644-1.018-3,1.567-6.34,4.073-5.644M79.6,67.429c4.991,3.547,21.5,3.908,27.257.512,6.132-3.618,10.009-11.171,9.677-19.245-.263-6.33-4.46-14.207-9.168-18.219-2.813-2.4-6.57-5.107-11.974-4.362-7.965,1.1-15.327,9.422-18.083,16.936-1.035,2.809-2.688,7.63-2.04,10.52.673,3.008,5.381,4.19,5.6,8.726.1,1.968-.42,2.917-1.274,5.132" transform="translate(39.747 13.75)" fill="#ba202a"/>
    <path id="Path_11" data-name="Path 11" d="M97.686,41.769c3.6,1-.219,8.2-4.073,5.644C92.595,44.417,95.18,41.073,97.686,41.769ZM79.6,67.429c4.991,3.547,21.5,3.908,27.257.512,6.132-3.618,10.009-11.171,9.677-19.245-.263-6.33-4.46-14.207-9.168-18.219-2.813-2.4-6.57-5.107-11.974-4.362-7.965,1.1-15.327,9.422-18.083,16.936-1.035,2.809-2.688,7.63-2.04,10.52.673,3.008,5.381,4.19,5.6,8.726C80.972,64.266,80.455,65.215,79.6,67.429Z" transform="translate(39.747 13.75)" fill="none" stroke="#fff" stroke-miterlimit="10" stroke-width="0.5"/>
    <path id="Path_12" data-name="Path 12" d="M118.11,30.072a4.014,4.014,0,0,0-1.046.683,3.207,3.207,0,0,1,1.046.563c.086-.141.3-.159.362-.321a5.881,5.881,0,0,1-.362-.925m.121-.2a6.651,6.651,0,0,0,.442,1.046,3.474,3.474,0,0,1,.442-.321,9.916,9.916,0,0,0-.08-1.688c-.26.33-.625.555-.8.963m4.583-3.618c-.737.575-1.81,1.271-2.693,1.89-.248.173-.774.453-.846.683a7.272,7.272,0,0,0,.041,1.567c1.621-1.023,3.645-2.555,5.385-3.778.343-.239,1.024-.509.564-.8a24.371,24.371,0,0,1-2.453.442m-8.482.081c-.434-.138-.633-.523-1-.644-2.6,1.74-5.193,3.489-7.8,5.226.725,1.029,1.531,1.98,2.33,2.936,3.2-2.369,6.719-4.667,9.889-7.035.05-.037.261-.069.2-.2-1.187-.19-2.61.041-3.618-.281m-3.216-7.6a8.185,8.185,0,0,0-.925.846c-.145.177-.216.463-.4.642a8.648,8.648,0,0,1-1.044.685c-2.445,1.628-4.98,3.312-7.356,4.862a30.832,30.832,0,0,0,2.453,3.015c2.743-2,5.525-3.96,8.28-5.95a4.744,4.744,0,0,1,.6-2.411c-.561-.537-1.034-1.162-1.607-1.69m.242-.2c-.046.009-.063.047-.081.081.558.514,1.023,1.121,1.567,1.647.144-.31.411-.5.563-.8-.725-.242-1.321-.821-2.049-.925m6.752-.4c.465-.02.893-.073,1.044-.405-.433.049-1.165-.2-1.044.405m-6.471.239c.662.289,1.268.636,1.888.965.39-.19.6-.642,1.086-.8.945-.317,2.237-.148,3.3-.4a1.505,1.505,0,0,0,.04-.405h-2.292c.026-.188-.052-.48.041-.6h2.37c.182-1.2.451-2.526.564-3.659-2.329,1.641-4.711,3.223-6.994,4.905m8.078-5.668a8.685,8.685,0,0,1-.843.563c-.174,1.3-.4,2.547-.6,3.82a7.481,7.481,0,0,0,1.246.04,1.154,1.154,0,0,1,1.125-.925c-.332-1.141-.512-2.434-.925-3.5m13.91-1.647c0,.052-.072.035-.081.08-1.566,1.194-3.1,2.424-4.664,3.618A16.679,16.679,0,0,0,124.3,17.49c-.206.148-.531.289-.483.442,1.532.02,3,.15,4.422.283a6.486,6.486,0,0,0,1.486.121,2.7,2.7,0,0,0,.644-.442c.7-.5,1.286-.9,1.93-1.367-.154-1.02.737-1.65,1.488-1.044.664-.476,1.312-.966,2.009-1.408-.673-1.055-1.417-2.04-2.17-3.014m-3.739-5.187c0-.023-.006-.046-.041-.04-.89.7-2.044,1.628-3.014,2.373a5.756,5.756,0,0,1-1.006.765c-.31.135-.61.154-.882.278a22.574,22.574,0,0,0-3.619,2.332c-.269.191-1.307.765-1.365,1.046a3.966,3.966,0,0,0,.2.884c.235.936.479,1.82.683,2.693.344.147.555-.021.8-.2,3.425-2.457,6.908-4.913,10.251-7.395-.691-.89-1.327-1.838-2.009-2.736M104.967,36.5h-.281c.523-1.124,1.743-1.554,2.653-2.291-.726-1.031-1.534-1.979-2.332-2.934-.335.2-.636.436-.965.642-1.509.086-2.956.232-4.421.362.57-1.171,1.815-1.809,2.933-2.613.2-.139.752-.436.765-.521a5.428,5.428,0,0,0-.6-.765c-.622-.775-1.234-1.5-1.81-2.251-.645.4-1.257.832-1.888,1.246-1.638.08-3.151.278-4.783.361V27.7c.659-1.2,1.777-1.7,2.934-2.532,11.286-8.132,22.623-16.087,33.926-24.2a6.13,6.13,0,0,1,1.206-.8,4.756,4.756,0,0,1,3.94.725c-1.95,1.563-3.979,3.044-5.91,4.622.677.917,1.353,1.835,2.009,2.774.875-.341,1.676-1.445,2.573-1.729a4.3,4.3,0,0,1,3.618.683c-1.474,1.141-2.91,2.317-4.422,3.417.7,1.052,1.445,2.064,2.211,3.054a4.825,4.825,0,0,1,1.165-.8,4.072,4.072,0,0,1,3.376.6,15.289,15.289,0,0,1-1.407,1.086c-.128.1-.353.248-.321.362a14.56,14.56,0,0,1,1.809-.563c.552-.164,1.318-.541,1.93-.242-.2.549-.761.8-1.206,1.125-.933.677-1.716,1.257-2.693,1.969a6.352,6.352,0,0,1-1.367,1,8.234,8.234,0,0,1-1.286.04,4.129,4.129,0,0,1,.482,2.534,2.071,2.071,0,0,1-1.086,1.125,9.675,9.675,0,0,1-1.688.523,13.335,13.335,0,0,0-1.407.683c-1.413.658-3.055,1.4-4.381,1.968a5.262,5.262,0,0,1,.965,2.05c.145,1.514-1.22,1.485-2.09.887-1.37.985-2.895,2-4.341,3.012-.417.292-1.05.928-1.489,1.006-.855.151-1.563-.243-2.491-.162.306.645,1.488,1.735.965,2.934-.226.52-.95.58-1.567.323a4.419,4.419,0,0,1-2.453-3.538c-1.714,1.031-3.43,2.243-5.185,3.416a9.047,9.047,0,0,1-1.809,1.127,12.673,12.673,0,0,1-1.89.161c-.616.052-1.235.05-1.888.161" transform="translate(49.857 0)" fill="#58595b"/>
  </g>
</svg>
