<svg xmlns="http://www.w3.org/2000/svg" width="48.638" height="36.504" viewBox="0 0 48.638 36.504">
  <path id="Path_3535" data-name="Path 3535" d="M118.11,30.072a4.014,4.014,0,0,0-1.046.683,3.207,3.207,0,0,1,1.046.563c.086-.141.3-.159.362-.321a5.881,5.881,0,0,1-.362-.925m.121-.2a6.651,6.651,0,0,0,.442,1.046,3.474,3.474,0,0,1,.442-.321,9.916,9.916,0,0,0-.08-1.688c-.26.33-.625.555-.8.963m4.583-3.618c-.737.575-1.81,1.271-2.693,1.89-.248.173-.774.453-.846.683a7.272,7.272,0,0,0,.041,1.567c1.621-1.023,3.645-2.555,5.385-3.778.343-.239,1.024-.509.564-.8a24.371,24.371,0,0,1-2.453.442m-8.482.081c-.434-.138-.633-.523-1-.644-2.6,1.74-5.193,3.489-7.8,5.226.725,1.029,1.531,1.98,2.33,2.936,3.2-2.369,6.719-4.667,9.889-7.035.05-.037.261-.069.2-.2-1.187-.19-2.61.041-3.618-.281m-3.216-7.6a8.185,8.185,0,0,0-.925.846c-.145.177-.216.463-.4.642a8.648,8.648,0,0,1-1.044.685c-2.445,1.628-4.98,3.312-7.356,4.862a30.832,30.832,0,0,0,2.453,3.015c2.743-2,5.525-3.96,8.28-5.95a4.744,4.744,0,0,1,.6-2.411c-.561-.537-1.034-1.162-1.607-1.69m.242-.2c-.046.009-.063.047-.081.081.558.514,1.023,1.121,1.567,1.647.144-.31.411-.5.563-.8-.725-.242-1.321-.821-2.049-.925m6.752-.4c.465-.02.893-.073,1.044-.405-.433.049-1.165-.2-1.044.405m-6.471.239c.662.289,1.268.636,1.888.965.39-.19.6-.642,1.086-.8.945-.317,2.237-.148,3.3-.4a1.505,1.505,0,0,0,.04-.405h-2.292c.026-.188-.052-.48.041-.6h2.37c.182-1.2.451-2.526.564-3.659-2.329,1.641-4.711,3.223-6.994,4.905m8.078-5.668a8.685,8.685,0,0,1-.843.563c-.174,1.3-.4,2.547-.6,3.82a7.481,7.481,0,0,0,1.246.04,1.154,1.154,0,0,1,1.125-.925c-.332-1.141-.512-2.434-.925-3.5m13.91-1.647c0,.052-.072.035-.081.08-1.566,1.194-3.1,2.424-4.664,3.618A16.679,16.679,0,0,0,124.3,17.49c-.206.148-.531.289-.483.442,1.532.02,3,.15,4.422.283a6.486,6.486,0,0,0,1.486.121,2.7,2.7,0,0,0,.644-.442c.7-.5,1.286-.9,1.93-1.367-.154-1.02.737-1.65,1.488-1.044.664-.476,1.312-.966,2.009-1.408-.673-1.055-1.417-2.04-2.17-3.014m-3.739-5.187c0-.023-.006-.046-.041-.04-.89.7-2.044,1.628-3.014,2.373a5.756,5.756,0,0,1-1.006.765c-.31.135-.61.154-.882.278a22.574,22.574,0,0,0-3.619,2.332c-.269.191-1.307.765-1.365,1.046a3.966,3.966,0,0,0,.2.884c.235.936.479,1.82.683,2.693.344.147.555-.021.8-.2,3.425-2.457,6.908-4.913,10.251-7.395-.691-.89-1.327-1.838-2.009-2.736M104.967,36.5h-.281c.523-1.124,1.743-1.554,2.653-2.291-.726-1.031-1.534-1.979-2.332-2.934-.335.2-.636.436-.965.642-1.509.086-2.956.232-4.421.362.57-1.171,1.815-1.809,2.933-2.613.2-.139.752-.436.765-.521a5.428,5.428,0,0,0-.6-.765c-.622-.775-1.234-1.5-1.81-2.251-.645.4-1.257.832-1.888,1.246-1.638.08-3.151.278-4.783.361V27.7c.659-1.2,1.777-1.7,2.934-2.532,11.286-8.132,22.623-16.087,33.926-24.2a6.13,6.13,0,0,1,1.206-.8,4.756,4.756,0,0,1,3.94.725c-1.95,1.563-3.979,3.044-5.91,4.622.677.917,1.353,1.835,2.009,2.774.875-.341,1.676-1.445,2.573-1.729a4.3,4.3,0,0,1,3.618.683c-1.474,1.141-2.91,2.317-4.422,3.417.7,1.052,1.445,2.064,2.211,3.054a4.825,4.825,0,0,1,1.165-.8,4.072,4.072,0,0,1,3.376.6,15.289,15.289,0,0,1-1.407,1.086c-.128.1-.353.248-.321.362a14.56,14.56,0,0,1,1.809-.563c.552-.164,1.318-.541,1.93-.242-.2.549-.761.8-1.206,1.125-.933.677-1.716,1.257-2.693,1.969a6.352,6.352,0,0,1-1.367,1,8.234,8.234,0,0,1-1.286.04,4.129,4.129,0,0,1,.482,2.534,2.071,2.071,0,0,1-1.086,1.125,9.675,9.675,0,0,1-1.688.523,13.335,13.335,0,0,0-1.407.683c-1.413.658-3.055,1.4-4.381,1.968a5.262,5.262,0,0,1,.965,2.05c.145,1.514-1.22,1.485-2.09.887-1.37.985-2.895,2-4.341,3.012-.417.292-1.05.928-1.489,1.006-.855.151-1.563-.243-2.491-.162.306.645,1.488,1.735.965,2.934-.226.52-.95.58-1.567.323a4.419,4.419,0,0,1-2.453-3.538c-1.714,1.031-3.43,2.243-5.185,3.416a9.047,9.047,0,0,1-1.809,1.127,12.673,12.673,0,0,1-1.89.161c-.616.052-1.235.05-1.888.161" transform="translate(-94.234 0)" fill="#58595b"/>
</svg>
