<svg xmlns="http://www.w3.org/2000/svg" width="42.954" height="42.955" viewBox="0 0 42.954 42.955">
  <g id="Group_76637" data-name="Group 76637" transform="translate(-505 -4386)">
    <g id="Group_75781" data-name="Group 75781" transform="translate(506 4387)">
      <path id="Path_2920" data-name="Path 2920" d="M216.652,259.991H179V223h29.725" transform="translate(-179 -219.037)" fill="none" stroke="#ba202a" stroke-linejoin="round" stroke-width="2"/>
      <path id="Path_2921" data-name="Path 2921" d="M237.266,253.991V220.633a3.633,3.633,0,1,0-7.266,0v33.688a3.633,3.633,0,1,1,3.633,3.633" transform="translate(-196.312 -217)" fill="none" stroke="#ba202a" stroke-linecap="round" stroke-linejoin="round" stroke-width="2"/>
    </g>
    <g id="Group_75782" data-name="Group 75782" transform="translate(510.624 4401.532)">
      <path id="Path_2922" data-name="Path 2922" d="M190.624,246H186v17.174h13.211v-3.963h4.624" transform="translate(-186 -241.376)" fill="none" stroke="#ba202a" stroke-linejoin="round" stroke-width="2"/>
      <path id="Path_2923" data-name="Path 2923" d="M215.174,239h-11.89v4.624H198" transform="translate(-190.073 -239)" fill="none" stroke="#ba202a" stroke-linejoin="round" stroke-width="2"/>
      <line id="Line_1" data-name="Line 1" x2="4" transform="translate(21.376 17.468)" fill="none" stroke="#ba202a" stroke-linejoin="round" stroke-width="2"/>
      <line id="Line_2" data-name="Line 2" y2="5" transform="translate(13.376 12.468)" fill="none" stroke="#ba202a" stroke-linejoin="round" stroke-width="2"/>
      <line id="Line_3" data-name="Line 3" x2="8" transform="translate(17.376 8.468)" fill="none" stroke="#ba202a" stroke-linejoin="round" stroke-width="2"/>
      <line id="Line_4" data-name="Line 4" x2="9" transform="translate(0.376 13.468)" fill="none" stroke="#ba202a" stroke-linejoin="round" stroke-width="2"/>
      <line id="Line_5" data-name="Line 5" y2="5" transform="translate(13.376 4.468)" fill="none" stroke="#ba202a" stroke-linejoin="round" stroke-width="2"/>
    </g>
    <g id="Group_75783" data-name="Group 75783" transform="translate(510.624 4394.927)">
      <line id="Line_6" data-name="Line 6" y2="1" transform="translate(5.376 1.073)" fill="none" stroke="#ba202a" stroke-linejoin="round" stroke-width="2"/>
      <line id="Line_7" data-name="Line 7" y2="2" transform="translate(10.376 0.073)" fill="none" stroke="#ba202a" stroke-linejoin="round" stroke-width="2"/>
      <line id="Line_8" data-name="Line 8" y2="1" transform="translate(15.376 1.073)" fill="none" stroke="#ba202a" stroke-linejoin="round" stroke-width="2"/>
      <line id="Line_9" data-name="Line 9" y2="2" transform="translate(21.376 0.073)" fill="none" stroke="#ba202a" stroke-linejoin="round" stroke-width="2"/>
      <path id="Path_2924" data-name="Path 2924" d="M211.1,230.982H186V229" transform="translate(-186 -229)" fill="none" stroke="#ba202a" stroke-linejoin="round" stroke-width="2"/>
    </g>
  </g>
</svg>
