<svg xmlns="http://www.w3.org/2000/svg" width="29.052" height="29" viewBox="0 0 29.052 29">
  <g id="Group_76569" data-name="Group 76569" transform="translate(-162.051 -162.329)">
    <path id="Path_3505" data-name="Path 3505" d="M171.584,162.329h1.872c.021.08.088.05.139.056a11.1,11.1,0,0,1,2.343.517,10.254,10.254,0,0,1,5.269,4.045,10.416,10.416,0,0,1,.009,11.58c-.4.595-.385.668.264,1.027.041.023.083.043.126.063a.717.717,0,0,0,.8-.036.5.5,0,0,1,.434-.058,2.069,2.069,0,0,1,1.023.677q3.131,3.219,6.256,6.445a2.793,2.793,0,0,1,.986,1.453v.17a3.092,3.092,0,0,1-1.056,1.411q-.614.588-1.225,1.179a1.313,1.313,0,0,1-2.038-.025q-3.4-3.506-6.8-7.018a2.078,2.078,0,0,1-.535-.821.664.664,0,0,1,.085-.669.529.529,0,0,0,.087-.482,2.031,2.031,0,0,0-.338-.676c-.15-.222-.258-.257-.491-.078a9.955,9.955,0,0,1-4.972,2.011,10.071,10.071,0,0,1-6.8-1.509,10.245,10.245,0,0,1-4.909-8.361c-.006-.084.051-.19-.059-.252v-.4c.108-.063.054-.169.057-.253a9.429,9.429,0,0,1,.755-3.485,10.311,10.311,0,0,1,8.3-6.41C171.3,162.409,171.461,162.432,171.584,162.329Zm8.156,10.42a7.2,7.2,0,1,0-7.185,7.191A7.213,7.213,0,0,0,179.74,172.749Z" fill="#707070"/>
  </g>
</svg>
