<svg xmlns="http://www.w3.org/2000/svg" width="54.848" height="69.998" viewBox="0 0 54.848 69.998">
  <g id="Group_76510" data-name="Group 76510" transform="translate(-1070.856 -1356.556)">
    <g id="Group_75738" data-name="Group 75738" transform="translate(1070.856 1356.556)">
      <path id="Path_2908" data-name="Path 2908" d="M1109.723,1426.554a1.466,1.466,0,0,1-.368-2.885c6.253-1.627,10.548-5.162,12.42-10.225,2.148-5.808.754-13.123-3.729-19.568-2-2.877-4.39-5.677-6.7-8.384-3.434-4.024-6.984-8.185-9.272-12.636a23.273,23.273,0,0,1-2.414-7.169,19.516,19.516,0,0,1-.177-4.315c-6.938,5.605-14.368,14.56-15.728,24.287-.964,6.894,1.148,13.556,6.276,19.8a1.466,1.466,0,0,1-.951,2.385,12.929,12.929,0,0,1-5.905-.9,12.676,12.676,0,0,1-6.941-7.011c-2.879,5.806-3.221,11.157-.923,15.3,2.958,5.331,10,8.388,19.317,8.388a1.466,1.466,0,0,1,0,2.932c-10.415,0-18.39-3.608-21.881-9.9a15.782,15.782,0,0,1-1.766-9.658,28.059,28.059,0,0,1,4.365-11.471,1.466,1.466,0,0,1,2.673.446c.969,4.194,3.073,6.971,6.253,8.254a9.992,9.992,0,0,0,1.518.474c-4.224-6.151-5.885-12.679-4.938-19.447a31.358,31.358,0,0,1,2.938-9.355,43.893,43.893,0,0,1,5.131-8.035,57.458,57.458,0,0,1,11.753-11.046,1.466,1.466,0,0,1,2.255,1.569c-2.505,9.788,3.884,17.275,10.649,25.2,2.356,2.761,4.793,5.617,6.877,8.613a29.412,29.412,0,0,1,4.86,11.277,20.8,20.8,0,0,1-.789,10.983,17.777,17.777,0,0,1-5.185,7.411,22.916,22.916,0,0,1-9.248,4.635A1.468,1.468,0,0,1,1109.723,1426.554Z" transform="translate(-1070.856 -1356.556)" fill="#707070"/>
    </g>
    <g id="Group_75739" data-name="Group 75739" transform="translate(1089.474 1405.167)">
      <path id="Path_2909" data-name="Path 2909" d="M1328.4,2021.7a.9.9,0,0,1-.832-1.229,13.7,13.7,0,0,0,.564-5.8,18.927,18.927,0,0,0-4.9-10.634,16.278,16.278,0,0,1-.07,5.593,8.613,8.613,0,0,1-2.929,5.129,6.5,6.5,0,0,1-3.488,1.4,6.373,6.373,0,0,1-2.023-.148,6.844,6.844,0,0,0,2.055,2.3,15.836,15.836,0,0,0,2.763,1.675.9.9,0,0,1-.736,1.635,17.582,17.582,0,0,1-3.118-1.886,9.644,9.644,0,0,1-2.132-2.165,4.425,4.425,0,0,1-.848-3.038.9.9,0,0,1,1.312-.687,4.608,4.608,0,0,0,5.1-.491,6.859,6.859,0,0,0,2.289-4.088,17.222,17.222,0,0,0-.543-7.823.9.9,0,0,1,1.475-.89,25.552,25.552,0,0,1,5.7,7.459,19.026,19.026,0,0,1,1.884,6.586,15.143,15.143,0,0,1-.694,6.539A.9.9,0,0,1,1328.4,2021.7Z" transform="translate(-1312.679 -2000.317)" fill="#707070"/>
    </g>
  </g>
</svg>
