<svg xmlns="http://www.w3.org/2000/svg" width="51.66" height="50.256" viewBox="0 0 51.66 50.256">
  <g id="security_system-alarm" data-name="security system-alarm" transform="translate(-519 -215)">
    <g id="Group_75744" data-name="Group 75744" transform="translate(538.053 232.882)">
      <path id="Path_2925" data-name="Path 2925" d="M562.869,268.145l-1.1-.755-5.287-1.588a3.878,3.878,0,0,1-.675-.269,14.5,14.5,0,0,1-5.242-4.833l-4.8-7.631c-.688-1.038-1.152-1.951-.073-2.666h0c1.078-.714,3.912.741,4.6,1.779l3.118,4.705-10.424-16.138a2.316,2.316,0,0,1,.711-3.185h0a2.315,2.315,0,0,1,3.211.587l7.064,10.662-1.065-1.608a2.315,2.315,0,0,1,.711-3.185h0a2.315,2.315,0,0,1,3.21.587L558.419,247l-.586-.884a2.317,2.317,0,0,1,.711-3.185h0a2.317,2.317,0,0,1,3.211.587l1.624,2.452-.625-.943a2.315,2.315,0,0,1,.711-3.185h0a2.314,2.314,0,0,1,3.21.587l3.5,5.281a23.9,23.9,0,0,1,3.468,8.816,3.776,3.776,0,0,1,.054,1.02l-.16,2.05.5,2.168" transform="translate(-542.63 -237.162)" fill="none" stroke="#ba202a" stroke-linecap="round" stroke-linejoin="round" stroke-width="2"/>
    </g>
    <g id="Group_75746" data-name="Group 75746" transform="translate(520 216)">
      <path id="Path_2926" data-name="Path 2926" d="M535.955,253.494H521.6a1.6,1.6,0,0,1-1.6-1.6V217.6a1.6,1.6,0,0,1,1.6-1.6h25.528a1.6,1.6,0,0,1,1.6,1.6v15.955" transform="translate(-520 -216)" fill="none" stroke="#ba202a" stroke-linecap="square" stroke-linejoin="round" stroke-width="2"/>
      <rect id="Rectangle_147698" data-name="Rectangle 147698" width="18" height="6" transform="translate(5 5.399)" fill="none" stroke="#ba202a" stroke-linecap="square" stroke-linejoin="round" stroke-width="2"/>
      <g id="Group_75745" data-name="Group 75745" transform="translate(5.264 16.844)">
        <ellipse id="Ellipse_2" data-name="Ellipse 2" cx="1.5" cy="2" rx="1.5" ry="2" transform="translate(-0.264 -0.445)" fill="#ba202a"/>
        <ellipse id="Ellipse_3" data-name="Ellipse 3" cx="1.5" cy="2" rx="1.5" ry="2" transform="translate(6.736 -0.445)" fill="#ba202a"/>
        <circle id="Ellipse_4" data-name="Ellipse 4" cx="1.5" cy="1.5" r="1.5" transform="translate(-0.264 6.555)" fill="#ba202a"/>
        <circle id="Ellipse_5" data-name="Ellipse 5" cx="1.5" cy="1.5" r="1.5" transform="translate(6.736 6.555)" fill="#ba202a"/>
        <circle id="Ellipse_6" data-name="Ellipse 6" cx="1.5" cy="1.5" r="1.5" transform="translate(-0.264 12.555)" fill="#ba202a"/>
        <circle id="Ellipse_7" data-name="Ellipse 7" cx="1.5" cy="1.5" r="1.5" transform="translate(6.736 12.555)" fill="#ba202a"/>
      </g>
    </g>
  </g>
</svg>
