<svg xmlns="http://www.w3.org/2000/svg" width="45.884" height="41.487" viewBox="0 0 45.884 41.487">
  <g id="Group_75780" data-name="Group 75780" transform="translate(-733.058 -1523.473)">
    <path id="Path_2917" data-name="Path 2917" d="M737.131,1614.988v6.07l21.981,12.687,21.976-12.687v-6.07l-2.444-1.411-1.931,1.115,1.477.853-19.081,11.016-19.081-11.016,1.477-.853-1.931-1.115Zm1.931,4.955v-2.727l19.085,11.02v2.723Zm40.095,0-19.08,11.014v-2.723l19.08-11.02Z" transform="translate(-3.109 -68.785)" fill="#ba202a"/>
    <path id="Path_2918" data-name="Path 2918" d="M756,1596.135l22.942-13.245-9.48-5.474-1.931,1.115,2.353,1.359-3.265,1.885-2.353-1.359-1.931,1.115,2.353,1.359-3.378,1.95-2.353-1.359-1.931,1.115,2.353,1.359L756,1587.905l-3.1-1.788a11.893,11.893,0,0,1-1.863.148,14.881,14.881,0,0,1-2.446-.215l-3.1,1.79-3.378-1.951,1.947-1.124q-1.078-.412-2.236-.939l-1.642.948-3.266-1.885,1.411-.814q-.954-.517-1.96-1.1l-3.312,1.912Zm-3.265-4.115,3.266-1.885,3.266,1.885L756,1593.906ZM771.815,1581l3.266,1.885-3.266,1.885-3.266-1.885Zm-5.2,3,3.266,1.885-3.378,1.951-3.266-1.885Zm-5.31,3.065,3.266,1.885-3.378,1.95-3.266-1.885Zm-10.619,0,3.378,1.95-3.266,1.885-3.378-1.95Z" transform="translate(0 -41.18)" fill="#ba202a"/>
    <path id="Path_2919" data-name="Path 2919" d="M751.233,1544.132a10.136,10.136,0,0,0,5.4-1.518s20.912-12.071,21.024-12.138l-.978-1.665-.3.173c-3.107,1.727-7.773,2.139-19.724-5.209l-.49-.3L733.258,1536.7l1.38.849C742.507,1542.388,747.539,1544.132,751.233,1544.132Zm4.907-18.412c6.9,4.193,11.578,5.955,15.092,6.238l-15.573,8.991c-2.989,1.787-7.333,2.481-18.618-4.2Z" transform="translate(-0.153)" fill="#ba202a"/>
  </g>
</svg>
